<?xml version="1.0"?>
<svg xmlns="http://www.w3.org/2000/svg" id="Layer_1" height="512px" viewBox="0 0 512 512" width="512px" data-name="Layer 1" class=""><g><path d="m413.11 73.99v167.48c-31.18 28.8-67.22 32.91-95.47 29.82a149.878 149.878 0 0 1 -59.81-20.28c-59.68-35.23-112.03-28.38-137.48-15.79v-167.48c25.42-12.59 67.66-19.44 127.33 15.79a149.983 149.983 0 0 0 59.81 20.28c28.26 3.09 74.44-1.02 105.62-29.82z" fill="#f8ec7d" data-original="#F8EC7D" class="active-path" data-old_color="#f8ec7d" style="fill:#071F4C"/><path d="m120.35 235.22v260.78h-21.46v-469.27a10.73 10.73 0 1 1 21.46 0z" fill="#e48e66" data-original="#E48E66" class=""/><g fill="#63316d"><path d="m98.89 502h21.46a6 6 0 0 0 6-6v-256.935c27.205-11.79 75.71-14.009 128.429 17.111a154.863 154.863 0 0 0 62.208 21.078 148.353 148.353 0 0 0 16.153.9c32.21 0 61.017-11.006 84.042-32.272a6 6 0 0 0 1.928-4.408v-167.484a6 6 0 0 0 -10.071-4.407c-28.047 25.906-70.515 31.584-100.9 28.263a143.068 143.068 0 0 1 -57.409-19.483c-55.949-33.033-97.457-30.145-124.38-19.8v-31.833a16.73 16.73 0 0 0 -33.46 0v469.27a6 6 0 0 0 6 6zm145.74-413.3a154.959 154.959 0 0 0 62.208 21.077c29.6 3.239 69.906-1.531 100.272-23.2v152.229c-24.194 21.4-54.06 30.319-88.819 26.52a142.966 142.966 0 0 1 -57.411-19.483c-27.706-16.356-56.083-25.323-84.344-26.654-22.416-1.056-39.289 2.961-50.186 6.962v-154.598c41.888-18.697 87.25-1.178 118.28 17.147zm-139.74-61.97a4.737 4.737 0 0 1 4.73-4.73 4.736 4.736 0 0 1 4.73 4.73v40a6 6 0 0 0 0 2.154v165.327a6 6 0 0 0 0 2.154v253.635h-9.46z" data-original="#000000" class="" style="fill:#000000" data-old_color="#000000"/><path d="m144.11 125.44a6 6 0 0 0 6-6v-27.89a6 6 0 0 0 -12 0v27.89a6 6 0 0 0 6 6z" data-original="#000000" class="" style="fill:#000000" data-old_color="#000000"/><path d="m144.11 202.78a6 6 0 0 0 6-6v-53.48a6 6 0 0 0 -12 0v53.48a6 6 0 0 0 6 6z" data-original="#000000" class="" style="fill:#000000" data-old_color="#000000"/></g></g> </svg>
